<mxfile>
    <diagram id="xcDmyZvfscCThR9mes15" name="Page-1">
        <mxGraphModel dx="5467" dy="3440" grid="0" gridSize="10" guides="1" tooltips="1" connect="1" arrows="1" fold="1" page="1" pageScale="1" pageWidth="2336" pageHeight="1654" math="0" shadow="0">
            <root>
                <mxCell id="0"/>
                <mxCell id="1" parent="0"/>
                <mxCell id="22" value="" style="whiteSpace=wrap;html=1;fillColor=none;fontColor=#000000;" parent="1" vertex="1">
                    <mxGeometry x="446" y="1314.76" width="1290.12" height="165.24" as="geometry"/>
                </mxCell>
                <mxCell id="GMVJKWx3nVJiayQFcU2y-21" value="" style="rounded=0;whiteSpace=wrap;html=1;fontColor=#000000;" parent="1" vertex="1">
                    <mxGeometry x="1081.72" y="750" width="394.4" height="290" as="geometry"/>
                </mxCell>
                <mxCell id="137" style="edgeStyle=orthogonalEdgeStyle;rounded=0;orthogonalLoop=1;jettySize=auto;html=1;entryX=1;entryY=0.25;entryDx=0;entryDy=0;endArrow=classic;endFill=1;dashed=1;fontColor=#000000;" parent="1" source="2" target="xQzbbyP8b-qCSZpWFhyt-74" edge="1">
                    <mxGeometry relative="1" as="geometry">
                        <Array as="points">
                            <mxPoint x="1660" y="691"/>
                        </Array>
                    </mxGeometry>
                </mxCell>
                <mxCell id="2" value="" style="rounded=0;whiteSpace=wrap;html=1;fontColor=#000000;" parent="1" vertex="1">
                    <mxGeometry x="1071" y="1140.26" width="731" height="120" as="geometry"/>
                </mxCell>
                <mxCell id="87" style="edgeStyle=orthogonalEdgeStyle;rounded=0;orthogonalLoop=1;jettySize=auto;html=1;dashed=1;strokeWidth=1;endArrow=classic;endFill=1;entryX=0.5;entryY=0;entryDx=0;entryDy=0;fontColor=#000000;" parent="1" target="3" edge="1">
                    <mxGeometry relative="1" as="geometry">
                        <Array as="points">
                            <mxPoint x="876" y="710"/>
                            <mxPoint x="1380" y="710"/>
                        </Array>
                        <mxPoint x="876" y="820" as="sourcePoint"/>
                    </mxGeometry>
                </mxCell>
                <mxCell id="3" value="Control de Posición del vehículo" style="rounded=0;whiteSpace=wrap;html=1;fillColor=#dae8fc;strokeColor=#6c8ebf;fontColor=#000000;" parent="1" vertex="1">
                    <mxGeometry x="1319.9999999999998" y="804.12" width="120" height="60" as="geometry"/>
                </mxCell>
                <mxCell id="6" style="edgeStyle=orthogonalEdgeStyle;rounded=0;orthogonalLoop=1;jettySize=auto;html=1;entryX=0;entryY=0.5;entryDx=0;entryDy=0;dashed=1;fontColor=#000000;" parent="1" target="3" edge="1">
                    <mxGeometry relative="1" as="geometry">
                        <mxPoint x="1280.7199999999998" y="940" as="sourcePoint"/>
                        <Array as="points">
                            <mxPoint x="1281" y="834"/>
                        </Array>
                    </mxGeometry>
                </mxCell>
                <mxCell id="8" style="edgeStyle=orthogonalEdgeStyle;rounded=0;orthogonalLoop=1;jettySize=auto;html=1;entryX=0;entryY=0.5;entryDx=0;entryDy=0;dashed=1;fontColor=#000000;" parent="1" source="9" target="12" edge="1">
                    <mxGeometry relative="1" as="geometry">
                        <Array as="points">
                            <mxPoint x="1281.7199999999998" y="940"/>
                            <mxPoint x="1281.7199999999998" y="980"/>
                        </Array>
                    </mxGeometry>
                </mxCell>
                <mxCell id="9" value="Identificar maleza y cultivo&amp;nbsp;" style="rounded=0;whiteSpace=wrap;html=1;fillColor=#ffff88;strokeColor=#36393d;fontColor=#000000;" parent="1" vertex="1">
                    <mxGeometry x="1108" y="927.71" width="120" height="60" as="geometry"/>
                </mxCell>
                <mxCell id="11" value="Dominio de Control&lt;br&gt;" style="text;html=1;align=center;verticalAlign=middle;resizable=0;points=[];autosize=1;fontColor=#000000;" parent="1" vertex="1">
                    <mxGeometry x="1081.7199999999998" y="759.15" width="120" height="20" as="geometry"/>
                </mxCell>
                <mxCell id="170" style="edgeStyle=orthogonalEdgeStyle;rounded=0;orthogonalLoop=1;jettySize=auto;html=1;exitX=1;exitY=0.75;exitDx=0;exitDy=0;entryX=0.703;entryY=0.031;entryDx=0;entryDy=0;entryPerimeter=0;dashed=1;fontColor=#000000;" parent="1" source="12" target="166" edge="1">
                    <mxGeometry relative="1" as="geometry"/>
                </mxCell>
                <mxCell id="12" value="Control de Rociado" style="rounded=0;whiteSpace=wrap;html=1;fillColor=#ffff88;strokeColor=#36393d;fontColor=#000000;" parent="1" vertex="1">
                    <mxGeometry x="1336.12" y="950" width="120" height="60" as="geometry"/>
                </mxCell>
                <mxCell id="TbavfHPHpZ2KASNAtm9h-14" value="" style="rounded=0;whiteSpace=wrap;html=1;fontColor=#000000;" parent="1" vertex="1">
                    <mxGeometry x="383" y="325" width="577" height="276" as="geometry"/>
                </mxCell>
                <mxCell id="TbavfHPHpZ2KASNAtm9h-15" value="" style="rounded=0;whiteSpace=wrap;html=1;fillColor=#e1d5e7;strokeColor=#9673a6;fontColor=#000000;" parent="1" vertex="1">
                    <mxGeometry x="480.0000000000001" y="480" width="120" height="60" as="geometry"/>
                </mxCell>
                <mxCell id="207" style="edgeStyle=orthogonalEdgeStyle;rounded=0;orthogonalLoop=1;jettySize=auto;html=1;entryX=0;entryY=0.5;entryDx=0;entryDy=0;fontColor=#000000;" parent="1" source="14" target="206" edge="1">
                    <mxGeometry relative="1" as="geometry"/>
                </mxCell>
                <mxCell id="14" value="Almacenar pesticida" style="rounded=0;whiteSpace=wrap;html=1;fillColor=#ffff88;strokeColor=#36393d;fontColor=#000000;" parent="1" vertex="1">
                    <mxGeometry x="577.0032558139533" y="1414" width="145.11627906976744" height="60" as="geometry"/>
                </mxCell>
                <mxCell id="16" value="&amp;nbsp;Disipar vibraciones" style="rounded=0;whiteSpace=wrap;html=1;fillColor=#dae8fc;strokeColor=#6c8ebf;fontColor=#000000;" parent="1" vertex="1">
                    <mxGeometry x="1359" y="1345.26" width="100.12" height="60" as="geometry"/>
                </mxCell>
                <mxCell id="17" value="Dominio Mecánico" style="text;html=1;align=center;verticalAlign=middle;resizable=0;points=[];autosize=1;fontColor=#000000;" parent="1" vertex="1">
                    <mxGeometry x="557.44" y="1319" width="110" height="20" as="geometry"/>
                </mxCell>
                <mxCell id="TbavfHPHpZ2KASNAtm9h-18" value="Acondicionar energía" style="text;html=1;align=center;verticalAlign=middle;whiteSpace=wrap;rounded=0;fontColor=#000000;" parent="1" vertex="1">
                    <mxGeometry x="490.0000000000001" y="480" width="100" height="60" as="geometry"/>
                </mxCell>
                <mxCell id="AOyavi5wDvOweeHl5Daa-19" value="Energizar controlador" style="rounded=0;whiteSpace=wrap;html=1;fillColor=#e1d5e7;strokeColor=#9673a6;fontColor=#000000;" parent="1" vertex="1">
                    <mxGeometry x="547.4400000000002" y="398" width="120" height="60" as="geometry"/>
                </mxCell>
                <mxCell id="AOyavi5wDvOweeHl5Daa-20" value="" style="rounded=0;whiteSpace=wrap;html=1;fillColor=#e1d5e7;strokeColor=#9673a6;fontColor=#000000;" parent="1" vertex="1">
                    <mxGeometry x="797.0000000000001" y="380" width="140" height="60" as="geometry"/>
                </mxCell>
                <mxCell id="AOyavi5wDvOweeHl5Daa-21" value="" style="rounded=0;whiteSpace=wrap;html=1;fillColor=#e1d5e7;strokeColor=#9673a6;fontColor=#000000;" parent="1" vertex="1">
                    <mxGeometry x="800.0000000000001" y="515" width="140" height="60" as="geometry"/>
                </mxCell>
                <mxCell id="GMVJKWx3nVJiayQFcU2y-22" value="Dominio de actuadores" style="text;html=1;align=center;verticalAlign=middle;resizable=0;points=[];autosize=1;fontColor=#000000;" parent="1" vertex="1">
                    <mxGeometry x="1139.9999999999998" y="1140.26" width="140" height="20" as="geometry"/>
                </mxCell>
                <mxCell id="203" style="edgeStyle=orthogonalEdgeStyle;rounded=0;orthogonalLoop=1;jettySize=auto;html=1;fontColor=#000000;" parent="1" source="21" target="202" edge="1">
                    <mxGeometry relative="1" as="geometry"/>
                </mxCell>
                <mxCell id="21" value="Transmitir movimiento" style="rounded=0;whiteSpace=wrap;html=1;fillColor=#dae8fc;strokeColor=#6c8ebf;fontColor=#000000;" parent="1" vertex="1">
                    <mxGeometry x="913" y="1345.26" width="104" height="60" as="geometry"/>
                </mxCell>
                <mxCell id="AOyavi5wDvOweeHl5Daa-27" value="" style="endArrow=none;html=1;fontColor=#000000;" parent="1" edge="1">
                    <mxGeometry width="50" height="50" relative="1" as="geometry">
                        <mxPoint x="600.0000000000001" y="505" as="sourcePoint"/>
                        <mxPoint x="640.0000000000001" y="504" as="targetPoint"/>
                    </mxGeometry>
                </mxCell>
                <mxCell id="AOyavi5wDvOweeHl5Daa-28" value="Energizar interfaz" style="text;html=1;align=center;verticalAlign=middle;whiteSpace=wrap;rounded=0;fontColor=#000000;" parent="1" vertex="1">
                    <mxGeometry x="800.0000000000001" y="380" width="130" height="60" as="geometry"/>
                </mxCell>
                <mxCell id="AOyavi5wDvOweeHl5Daa-30" value="Energizar actuadores" style="text;html=1;align=center;verticalAlign=middle;whiteSpace=wrap;rounded=0;fontColor=#000000;" parent="1" vertex="1">
                    <mxGeometry x="810.0000000000001" y="520" width="120" height="50" as="geometry"/>
                </mxCell>
                <mxCell id="AOyavi5wDvOweeHl5Daa-35" value="" style="rounded=0;whiteSpace=wrap;html=1;fontColor=#000000;" parent="1" vertex="1">
                    <mxGeometry x="800.0000000000001" y="450" width="140" height="60" as="geometry"/>
                </mxCell>
                <mxCell id="AOyavi5wDvOweeHl5Daa-36" value="Energizar sensores" style="text;html=1;strokeColor=#9673a6;fillColor=#e1d5e7;align=center;verticalAlign=middle;whiteSpace=wrap;rounded=0;fontColor=#000000;" parent="1" vertex="1">
                    <mxGeometry x="800.0000000000001" y="450" width="140" height="60" as="geometry"/>
                </mxCell>
                <mxCell id="168" style="edgeStyle=orthogonalEdgeStyle;rounded=0;orthogonalLoop=1;jettySize=auto;html=1;dashed=1;fontColor=#000000;" parent="1" source="GMVJKWx3nVJiayQFcU2y-32" target="50" edge="1">
                    <mxGeometry relative="1" as="geometry"/>
                </mxCell>
                <mxCell id="GMVJKWx3nVJiayQFcU2y-32" value="Accionar mecanismo de rociado" style="rounded=0;whiteSpace=wrap;html=1;fillColor=#ffff88;strokeColor=#36393d;fontColor=#000000;" parent="1" vertex="1">
                    <mxGeometry x="1592" y="1174" width="120" height="60" as="geometry"/>
                </mxCell>
                <mxCell id="174" style="edgeStyle=orthogonalEdgeStyle;rounded=0;orthogonalLoop=1;jettySize=auto;html=1;entryX=0;entryY=0.5;entryDx=0;entryDy=0;fontColor=#000000;" parent="1" source="AOyavi5wDvOweeHl5Daa-37" target="AOyavi5wDvOweeHl5Daa-28" edge="1">
                    <mxGeometry relative="1" as="geometry">
                        <Array as="points">
                            <mxPoint x="775" y="512"/>
                            <mxPoint x="775" y="410"/>
                        </Array>
                    </mxGeometry>
                </mxCell>
                <mxCell id="175" style="edgeStyle=orthogonalEdgeStyle;rounded=0;orthogonalLoop=1;jettySize=auto;html=1;exitX=1;exitY=0.5;exitDx=0;exitDy=0;entryX=0;entryY=0.5;entryDx=0;entryDy=0;fontColor=#000000;" parent="1" source="AOyavi5wDvOweeHl5Daa-37" target="AOyavi5wDvOweeHl5Daa-36" edge="1">
                    <mxGeometry relative="1" as="geometry">
                        <Array as="points">
                            <mxPoint x="775" y="512"/>
                            <mxPoint x="775" y="480"/>
                        </Array>
                    </mxGeometry>
                </mxCell>
                <mxCell id="176" style="edgeStyle=orthogonalEdgeStyle;rounded=0;orthogonalLoop=1;jettySize=auto;html=1;exitX=1;exitY=0.5;exitDx=0;exitDy=0;entryX=0;entryY=0.5;entryDx=0;entryDy=0;fontColor=#000000;" parent="1" source="AOyavi5wDvOweeHl5Daa-37" target="AOyavi5wDvOweeHl5Daa-21" edge="1">
                    <mxGeometry relative="1" as="geometry">
                        <Array as="points">
                            <mxPoint x="776" y="512"/>
                            <mxPoint x="776" y="545"/>
                        </Array>
                    </mxGeometry>
                </mxCell>
                <mxCell id="177" style="edgeStyle=orthogonalEdgeStyle;rounded=0;orthogonalLoop=1;jettySize=auto;html=1;exitX=0.5;exitY=0;exitDx=0;exitDy=0;entryX=1;entryY=0.5;entryDx=0;entryDy=0;fontColor=#000000;" parent="1" source="AOyavi5wDvOweeHl5Daa-37" target="AOyavi5wDvOweeHl5Daa-19" edge="1">
                    <mxGeometry relative="1" as="geometry"/>
                </mxCell>
                <mxCell id="AOyavi5wDvOweeHl5Daa-37" value="Almacenar energía" style="text;html=1;strokeColor=#9673a6;fillColor=#e1d5e7;align=center;verticalAlign=middle;whiteSpace=wrap;rounded=0;fontColor=#000000;" parent="1" vertex="1">
                    <mxGeometry x="642.8300000000002" y="482" width="120" height="60" as="geometry"/>
                </mxCell>
                <mxCell id="GMVJKWx3nVJiayQFcU2y-33" value="Accionar indicador de fin de recorrido" style="rounded=0;whiteSpace=wrap;html=1;fillColor=#dae8fc;strokeColor=#6c8ebf;fontColor=#000000;" parent="1" vertex="1">
                    <mxGeometry x="1267.6100000000001" y="1170.26" width="120" height="60" as="geometry"/>
                </mxCell>
                <mxCell id="AOyavi5wDvOweeHl5Daa-41" value="Dominio de Energía" style="text;html=1;align=center;verticalAlign=middle;resizable=0;points=[];autosize=1;fontColor=#000000;" parent="1" vertex="1">
                    <mxGeometry x="450.00000000000017" y="330" width="120" height="20" as="geometry"/>
                </mxCell>
                <mxCell id="AOyavi5wDvOweeHl5Daa-45" style="edgeStyle=orthogonalEdgeStyle;rounded=0;orthogonalLoop=1;jettySize=auto;html=1;entryX=0.5;entryY=0;entryDx=0;entryDy=0;exitX=1;exitY=0.25;exitDx=0;exitDy=0;fontColor=#000000;" parent="1" source="AOyavi5wDvOweeHl5Daa-20" target="95" edge="1">
                    <mxGeometry relative="1" as="geometry">
                        <mxPoint x="931.6100000000001" y="295" as="sourcePoint"/>
                        <mxPoint x="1041.6100000000004" y="295" as="targetPoint"/>
                    </mxGeometry>
                </mxCell>
                <mxCell id="xQzbbyP8b-qCSZpWFhyt-74" value="" style="rounded=0;whiteSpace=wrap;html=1;strokeWidth=1;glass=0;fontColor=#000000;" parent="1" vertex="1">
                    <mxGeometry x="438.06" y="661.89" width="390" height="117.26" as="geometry"/>
                </mxCell>
                <mxCell id="xQzbbyP8b-qCSZpWFhyt-81" value="&lt;font style=&quot;font-size: 14px&quot;&gt;Comunicación&lt;/font&gt;" style="text;html=1;strokeColor=none;fillColor=none;align=center;verticalAlign=middle;whiteSpace=wrap;rounded=0;fontColor=#000000;" parent="1" vertex="1">
                    <mxGeometry x="438.05999999999995" y="661.89" width="100.91" height="20" as="geometry"/>
                </mxCell>
                <mxCell id="xQzbbyP8b-qCSZpWFhyt-82" value="Enviar Información" style="rounded=0;whiteSpace=wrap;html=1;fontColor=#000000;" parent="1" vertex="1">
                    <mxGeometry x="506.27465116279103" y="695.52" width="145.11627906976744" height="60" as="geometry"/>
                </mxCell>
                <mxCell id="xQzbbyP8b-qCSZpWFhyt-85" value="Recibir Información" style="rounded=0;whiteSpace=wrap;html=1;fontColor=#000000;" parent="1" vertex="1">
                    <mxGeometry x="666.3332558139537" y="695.52" width="145.11627906976744" height="60" as="geometry"/>
                </mxCell>
                <mxCell id="AOyavi5wDvOweeHl5Daa-46" style="edgeStyle=orthogonalEdgeStyle;rounded=0;orthogonalLoop=1;jettySize=auto;html=1;entryX=0.5;entryY=0;entryDx=0;entryDy=0;exitX=1;exitY=0.5;exitDx=0;exitDy=0;fontColor=#000000;" parent="1" source="AOyavi5wDvOweeHl5Daa-36" target="xQzbbyP8b-qCSZpWFhyt-102" edge="1">
                    <mxGeometry relative="1" as="geometry">
                        <mxPoint x="1000" y="380" as="sourcePoint"/>
                        <mxPoint x="1045.1100000000004" y="370" as="targetPoint"/>
                        <Array as="points">
                            <mxPoint x="1020" y="800"/>
                            <mxPoint x="644" y="800"/>
                        </Array>
                    </mxGeometry>
                </mxCell>
                <mxCell id="AOyavi5wDvOweeHl5Daa-47" style="edgeStyle=orthogonalEdgeStyle;rounded=0;orthogonalLoop=1;jettySize=auto;html=1;entryX=0.5;entryY=0;entryDx=0;entryDy=0;fontColor=#000000;" parent="1" target="2" edge="1">
                    <mxGeometry relative="1" as="geometry">
                        <mxPoint x="942" y="548" as="sourcePoint"/>
                        <mxPoint x="1045.1100000000004" y="430" as="targetPoint"/>
                        <Array as="points">
                            <mxPoint x="1496" y="548"/>
                            <mxPoint x="1496" y="1111"/>
                            <mxPoint x="1437" y="1111"/>
                        </Array>
                    </mxGeometry>
                </mxCell>
                <mxCell id="AOyavi5wDvOweeHl5Daa-48" style="edgeStyle=orthogonalEdgeStyle;rounded=0;orthogonalLoop=1;jettySize=auto;html=1;exitX=0.5;exitY=0;exitDx=0;exitDy=0;entryX=0.5;entryY=0;entryDx=0;entryDy=0;fontColor=#000000;" parent="1" source="AOyavi5wDvOweeHl5Daa-19" target="GMVJKWx3nVJiayQFcU2y-21" edge="1">
                    <mxGeometry relative="1" as="geometry">
                        <mxPoint x="945.1100000000001" y="440" as="sourcePoint"/>
                        <mxPoint x="602.1100000000001" y="200" as="targetPoint"/>
                        <Array as="points">
                            <mxPoint x="607" y="307"/>
                            <mxPoint x="1279" y="307"/>
                        </Array>
                    </mxGeometry>
                </mxCell>
                <mxCell id="xQzbbyP8b-qCSZpWFhyt-123" value="" style="edgeStyle=orthogonalEdgeStyle;rounded=0;orthogonalLoop=1;jettySize=auto;html=1;fontColor=#000000;" parent="1" source="AOyavi5wDvOweeHl5Daa-57" target="AOyavi5wDvOweeHl5Daa-62" edge="1">
                    <mxGeometry relative="1" as="geometry"/>
                </mxCell>
                <mxCell id="AOyavi5wDvOweeHl5Daa-51" value="Identificar camino a seguir" style="rounded=0;whiteSpace=wrap;html=1;fillColor=#ffcccc;strokeColor=#36393d;fontColor=#000000;" parent="1" vertex="1">
                    <mxGeometry x="970" y="227" width="120" height="60" as="geometry"/>
                </mxCell>
                <mxCell id="xQzbbyP8b-qCSZpWFhyt-102" value="" style="rounded=0;whiteSpace=wrap;html=1;fontColor=#000000;" parent="1" vertex="1">
                    <mxGeometry x="529.1" y="840.26" width="230" height="429.74" as="geometry"/>
                </mxCell>
                <mxCell id="xQzbbyP8b-qCSZpWFhyt-103" value="Dominio Sensores" style="text;html=1;strokeColor=none;fillColor=none;align=center;verticalAlign=middle;whiteSpace=wrap;rounded=0;fontColor=#000000;" parent="1" vertex="1">
                    <mxGeometry x="535.4000000000001" y="846.59" width="107.43" height="20" as="geometry"/>
                </mxCell>
                <mxCell id="xQzbbyP8b-qCSZpWFhyt-104" value="Capturar imagenes de cultivo" style="rounded=0;whiteSpace=wrap;html=1;fillColor=#ffff88;strokeColor=#36393d;fontColor=#000000;" parent="1" vertex="1">
                    <mxGeometry x="584.0999999999999" y="1120.26" width="120" height="60" as="geometry"/>
                </mxCell>
                <mxCell id="194" style="edgeStyle=orthogonalEdgeStyle;rounded=0;orthogonalLoop=1;jettySize=auto;html=1;exitX=1;exitY=0.25;exitDx=0;exitDy=0;entryX=0;entryY=0.5;entryDx=0;entryDy=0;dashed=1;fontColor=#000000;" parent="1" source="xQzbbyP8b-qCSZpWFhyt-105" target="191" edge="1">
                    <mxGeometry relative="1" as="geometry">
                        <Array as="points">
                            <mxPoint x="969" y="1055"/>
                            <mxPoint x="969" y="870"/>
                        </Array>
                    </mxGeometry>
                </mxCell>
                <mxCell id="xQzbbyP8b-qCSZpWFhyt-105" value="Detectar ubicación" style="rounded=0;whiteSpace=wrap;html=1;fillColor=#dae8fc;strokeColor=#6c8ebf;fontColor=#000000;" parent="1" vertex="1">
                    <mxGeometry x="584.0999999999999" y="1040" width="120" height="60" as="geometry"/>
                </mxCell>
                <mxCell id="xQzbbyP8b-qCSZpWFhyt-106" value="" style="endArrow=classic;html=1;dashed=1;exitX=1;exitY=0.5;exitDx=0;exitDy=0;rounded=0;endFill=1;fontColor=#000000;" parent="1" source="74" edge="1">
                    <mxGeometry width="50" height="50" relative="1" as="geometry">
                        <mxPoint x="726.12" y="900.26" as="sourcePoint"/>
                        <mxPoint x="1320" y="811" as="targetPoint"/>
                        <Array as="points">
                            <mxPoint x="916.12" y="900.26"/>
                            <mxPoint x="916" y="811"/>
                        </Array>
                    </mxGeometry>
                </mxCell>
                <mxCell id="xQzbbyP8b-qCSZpWFhyt-107" value="" style="endArrow=classic;html=1;dashed=1;entryX=0.5;entryY=0;entryDx=0;entryDy=0;exitX=1;exitY=0.5;exitDx=0;exitDy=0;rounded=0;fontColor=#000000;" parent="1" source="xQzbbyP8b-qCSZpWFhyt-105" target="GMVJKWx3nVJiayQFcU2y-33" edge="1">
                    <mxGeometry width="50" height="50" relative="1" as="geometry">
                        <mxPoint x="719.1" y="1080.26" as="sourcePoint"/>
                        <mxPoint x="742.1" y="1080.26" as="targetPoint"/>
                        <Array as="points">
                            <mxPoint x="1328" y="1070"/>
                        </Array>
                    </mxGeometry>
                </mxCell>
                <mxCell id="xQzbbyP8b-qCSZpWFhyt-110" value="Detectar nivel del tanque de pesticida" style="rounded=0;whiteSpace=wrap;html=1;fillColor=#ffff88;strokeColor=#36393d;fontColor=#000000;" parent="1" vertex="1">
                    <mxGeometry x="584.0999999999999" y="1190" width="120" height="60" as="geometry"/>
                </mxCell>
                <mxCell id="xQzbbyP8b-qCSZpWFhyt-111" value="" style="endArrow=classic;html=1;dashed=1;exitX=1;exitY=0.5;exitDx=0;exitDy=0;entryX=0.25;entryY=1;entryDx=0;entryDy=0;rounded=0;fontColor=#000000;" parent="1" source="xQzbbyP8b-qCSZpWFhyt-110" target="12" edge="1">
                    <mxGeometry width="50" height="50" relative="1" as="geometry">
                        <mxPoint x="759.1" y="1170.26" as="sourcePoint"/>
                        <mxPoint x="1306.12" y="880.26" as="targetPoint"/>
                        <Array as="points">
                            <mxPoint x="1030" y="1220"/>
                            <mxPoint x="1030" y="1060"/>
                            <mxPoint x="1366" y="1060"/>
                        </Array>
                    </mxGeometry>
                </mxCell>
                <mxCell id="xQzbbyP8b-qCSZpWFhyt-112" value="" style="endArrow=classic;html=1;dashed=1;entryX=0;entryY=0.5;entryDx=0;entryDy=0;exitX=1;exitY=0.75;exitDx=0;exitDy=0;rounded=0;fontColor=#000000;" parent="1" source="68" target="xQzbbyP8b-qCSZpWFhyt-104" edge="1">
                    <mxGeometry width="50" height="50" relative="1" as="geometry">
                        <mxPoint x="382" y="1150" as="sourcePoint"/>
                        <mxPoint x="559.1" y="990.26" as="targetPoint"/>
                        <Array as="points">
                            <mxPoint x="290" y="1150"/>
                        </Array>
                    </mxGeometry>
                </mxCell>
                <mxCell id="xQzbbyP8b-qCSZpWFhyt-115" value="" style="endArrow=classic;html=1;dashed=1;entryX=0.5;entryY=1;entryDx=0;entryDy=0;exitX=1;exitY=0.5;exitDx=0;exitDy=0;rounded=0;fontColor=#000000;" parent="1" source="50" target="xQzbbyP8b-qCSZpWFhyt-110" edge="1">
                    <mxGeometry width="50" height="50" relative="1" as="geometry">
                        <mxPoint x="471.66999999999996" y="1170.26" as="sourcePoint"/>
                        <mxPoint x="559.1" y="1170.26" as="targetPoint"/>
                        <Array as="points">
                            <mxPoint x="1710" y="1375"/>
                            <mxPoint x="1710" y="1280"/>
                            <mxPoint x="644" y="1280"/>
                        </Array>
                    </mxGeometry>
                </mxCell>
                <mxCell id="164" style="edgeStyle=orthogonalEdgeStyle;rounded=0;orthogonalLoop=1;jettySize=auto;html=1;exitX=1;exitY=0.5;exitDx=0;exitDy=0;endArrow=classic;endFill=1;fontColor=#000000;" parent="1" source="AOyavi5wDvOweeHl5Daa-58" edge="1">
                    <mxGeometry relative="1" as="geometry">
                        <mxPoint x="1543.771427699498" y="258.85714285714283" as="targetPoint"/>
                    </mxGeometry>
                </mxCell>
                <mxCell id="165" style="edgeStyle=orthogonalEdgeStyle;rounded=0;orthogonalLoop=1;jettySize=auto;html=1;endArrow=classic;endFill=1;fontColor=#000000;" parent="1" source="AOyavi5wDvOweeHl5Daa-58" edge="1">
                    <mxGeometry relative="1" as="geometry">
                        <mxPoint x="1097" y="254" as="targetPoint"/>
                        <Array as="points">
                            <mxPoint x="1462" y="215"/>
                            <mxPoint x="1097" y="215"/>
                        </Array>
                    </mxGeometry>
                </mxCell>
                <mxCell id="AOyavi5wDvOweeHl5Daa-58" value="&lt;span&gt;Rociar los pesticidas&lt;/span&gt;" style="rounded=0;whiteSpace=wrap;html=1;fillColor=#f8cecc;strokeColor=#b85450;fontColor=#000000;" parent="1" vertex="1">
                    <mxGeometry x="1405" y="229" width="114" height="60" as="geometry"/>
                </mxCell>
                <mxCell id="xQzbbyP8b-qCSZpWFhyt-125" value="" style="edgeStyle=orthogonalEdgeStyle;rounded=0;orthogonalLoop=1;jettySize=auto;html=1;fontColor=#000000;" parent="1" source="AOyavi5wDvOweeHl5Daa-62" target="AOyavi5wDvOweeHl5Daa-58" edge="1">
                    <mxGeometry relative="1" as="geometry"/>
                </mxCell>
                <mxCell id="AOyavi5wDvOweeHl5Daa-62" value="Diferenciar entre maleza y cultivos" style="rounded=0;whiteSpace=wrap;html=1;fillColor=#f8cecc;strokeColor=#b85450;fontColor=#000000;" parent="1" vertex="1">
                    <mxGeometry x="1258" y="229" width="120" height="60" as="geometry"/>
                </mxCell>
                <mxCell id="xQzbbyP8b-qCSZpWFhyt-118" value="Enviar alerta de término de recorrido" style="rounded=0;whiteSpace=wrap;html=1;fillColor=#f8cecc;strokeColor=#b85450;fontColor=#000000;" parent="1" vertex="1">
                    <mxGeometry x="1545" y="232" width="120" height="60" as="geometry"/>
                </mxCell>
                <mxCell id="38" value="" style="edgeStyle=orthogonalEdgeStyle;rounded=0;orthogonalLoop=1;jettySize=auto;html=1;fontColor=#000000;" parent="1" source="34" target="37" edge="1">
                    <mxGeometry relative="1" as="geometry"/>
                </mxCell>
                <mxCell id="34" value="Definir espacio de trabajo" style="rounded=0;whiteSpace=wrap;html=1;fillColor=#ffcccc;strokeColor=#36393d;fontColor=#000000;" parent="1" vertex="1">
                    <mxGeometry x="490.00000000000006" y="227" width="120" height="60" as="geometry"/>
                </mxCell>
                <mxCell id="40" value="" style="edgeStyle=orthogonalEdgeStyle;rounded=0;orthogonalLoop=1;jettySize=auto;html=1;fontColor=#000000;" parent="1" source="37" target="39" edge="1">
                    <mxGeometry relative="1" as="geometry"/>
                </mxCell>
                <mxCell id="37" value="Definir posición inicial" style="rounded=0;whiteSpace=wrap;html=1;fillColor=#ffcccc;strokeColor=#36393d;fontColor=#000000;" parent="1" vertex="1">
                    <mxGeometry x="656" y="227" width="120" height="60" as="geometry"/>
                </mxCell>
                <mxCell id="41" value="" style="edgeStyle=orthogonalEdgeStyle;rounded=0;orthogonalLoop=1;jettySize=auto;html=1;fontColor=#000000;" parent="1" source="39" target="AOyavi5wDvOweeHl5Daa-51" edge="1">
                    <mxGeometry relative="1" as="geometry"/>
                </mxCell>
                <mxCell id="39" value="Encender el sistema" style="rounded=0;whiteSpace=wrap;html=1;fillColor=#ffcccc;strokeColor=#36393d;fontColor=#000000;" parent="1" vertex="1">
                    <mxGeometry x="804" y="227" width="120" height="60" as="geometry"/>
                </mxCell>
                <mxCell id="AOyavi5wDvOweeHl5Daa-57" value="&lt;span&gt;Ejecutar el recorrido&lt;/span&gt;" style="rounded=0;whiteSpace=wrap;html=1;fillColor=#ffcccc;strokeColor=#36393d;fontColor=#000000;" parent="1" vertex="1">
                    <mxGeometry x="1115.06" y="229" width="120" height="60" as="geometry"/>
                </mxCell>
                <mxCell id="42" value="" style="edgeStyle=orthogonalEdgeStyle;rounded=0;orthogonalLoop=1;jettySize=auto;html=1;fontColor=#000000;" parent="1" source="AOyavi5wDvOweeHl5Daa-51" target="AOyavi5wDvOweeHl5Daa-57" edge="1">
                    <mxGeometry relative="1" as="geometry">
                        <mxPoint x="1081.88" y="428" as="sourcePoint"/>
                        <mxPoint x="1326.1200000000001" y="428" as="targetPoint"/>
                    </mxGeometry>
                </mxCell>
                <mxCell id="43" value="" style="endArrow=none;html=1;dashed=1;exitX=1;exitY=0.5;exitDx=0;exitDy=0;endFill=0;fontColor=#000000;" parent="1" source="44" edge="1">
                    <mxGeometry width="50" height="50" relative="1" as="geometry">
                        <mxPoint x="240.16999999999973" y="573" as="sourcePoint"/>
                        <mxPoint x="374.75" y="613" as="targetPoint"/>
                        <Array as="points">
                            <mxPoint x="374.75" y="563"/>
                        </Array>
                    </mxGeometry>
                </mxCell>
                <mxCell id="44" value="&lt;font style=&quot;font-size: 14px&quot;&gt;Posición Inicial del Vehículo&lt;/font&gt;" style="text;html=1;strokeColor=none;fillColor=none;align=center;verticalAlign=middle;whiteSpace=wrap;rounded=0;glass=0;fontColor=#000000;" parent="1" vertex="1">
                    <mxGeometry x="90.16999999999973" y="553" width="181.7" height="20" as="geometry"/>
                </mxCell>
                <mxCell id="49" value="&lt;span style=&quot;font-size: 14px&quot;&gt;Espacio de trabajo (dimensiones)&lt;/span&gt;" style="text;html=1;strokeColor=none;fillColor=none;align=center;verticalAlign=middle;whiteSpace=wrap;rounded=0;glass=0;fontColor=#000000;" parent="1" vertex="1">
                    <mxGeometry x="139" y="810" width="156.6" height="20" as="geometry"/>
                </mxCell>
                <mxCell id="50" value="Rociar Pesticida" style="rounded=0;whiteSpace=wrap;html=1;fillColor=#ffff88;strokeColor=#36393d;fontColor=#000000;" parent="1" vertex="1">
                    <mxGeometry x="1495.0032558139533" y="1345.26" width="145.11627906976744" height="60" as="geometry"/>
                </mxCell>
                <mxCell id="58" value="&lt;font style=&quot;font-size: 14px&quot;&gt;Energía Eléctrica&lt;/font&gt;" style="text;html=1;strokeColor=none;fillColor=none;align=center;verticalAlign=middle;whiteSpace=wrap;rounded=0;glass=0;rotation=0;fontColor=#000000;" parent="1" vertex="1">
                    <mxGeometry x="130.0000000000001" y="500" width="120" height="20" as="geometry"/>
                </mxCell>
                <mxCell id="59" value="" style="endArrow=classic;html=1;entryX=0;entryY=0.5;entryDx=0;entryDy=0;exitX=1;exitY=0.5;exitDx=0;exitDy=0;rounded=0;fontColor=#000000;" parent="1" source="58" target="TbavfHPHpZ2KASNAtm9h-15" edge="1">
                    <mxGeometry width="50" height="50" relative="1" as="geometry">
                        <mxPoint x="265.1100000000001" y="268.81999999999994" as="sourcePoint"/>
                        <mxPoint x="393.4100000000001" y="269.05999999999995" as="targetPoint"/>
                    </mxGeometry>
                </mxCell>
                <mxCell id="61" value="" style="endArrow=classic;html=1;strokeWidth=4;exitX=1;exitY=0.5;exitDx=0;exitDy=0;entryX=0;entryY=0.392;entryDx=0;entryDy=0;entryPerimeter=0;fontColor=#000000;" parent="1" source="63" target="14" edge="1">
                    <mxGeometry width="50" height="50" relative="1" as="geometry">
                        <mxPoint x="461.6500000000001" y="1450.39" as="sourcePoint"/>
                        <mxPoint x="506.27" y="1438.74" as="targetPoint"/>
                    </mxGeometry>
                </mxCell>
                <mxCell id="180" style="edgeStyle=orthogonalEdgeStyle;rounded=0;orthogonalLoop=1;jettySize=auto;html=1;exitX=1;exitY=0.5;exitDx=0;exitDy=0;entryX=0;entryY=0.5;entryDx=0;entryDy=0;dashed=1;fontColor=#000000;" parent="1" source="62" target="179" edge="1">
                    <mxGeometry relative="1" as="geometry"/>
                </mxCell>
                <mxCell id="62" value="&lt;font style=&quot;font-size: 14px&quot;&gt;Señal de Encendido&lt;br&gt;&lt;/font&gt;" style="text;html=1;strokeColor=none;fillColor=none;align=center;verticalAlign=middle;whiteSpace=wrap;rounded=0;glass=0;fontColor=#000000;" parent="1" vertex="1">
                    <mxGeometry x="220.00000000000006" y="418" width="131.7" height="20" as="geometry"/>
                </mxCell>
                <mxCell id="63" value="&lt;font style=&quot;font-size: 14px&quot;&gt;Pesticida&lt;/font&gt;" style="text;html=1;strokeColor=none;fillColor=none;align=center;verticalAlign=middle;whiteSpace=wrap;rounded=0;glass=0;fontColor=#000000;" parent="1" vertex="1">
                    <mxGeometry x="365.99999999999994" y="1429" width="60.9" height="20" as="geometry"/>
                </mxCell>
                <mxCell id="64" value="" style="endArrow=classic;html=1;dashed=1;exitX=1;exitY=0.5;exitDx=0;exitDy=0;entryX=0.75;entryY=0;entryDx=0;entryDy=0;rounded=0;fontColor=#000000;" parent="1" source="65" target="96" edge="1">
                    <mxGeometry width="50" height="50" relative="1" as="geometry">
                        <mxPoint x="200.22000000000008" y="531.77" as="sourcePoint"/>
                        <mxPoint x="1690" y="520" as="targetPoint"/>
                        <Array as="points">
                            <mxPoint x="1777" y="610"/>
                        </Array>
                    </mxGeometry>
                </mxCell>
                <mxCell id="65" value="&lt;font style=&quot;font-size: 14px&quot;&gt;Señal de Inicio&lt;br&gt;&lt;/font&gt;" style="text;html=1;strokeColor=none;fillColor=none;align=center;verticalAlign=middle;whiteSpace=wrap;rounded=0;glass=0;fontColor=#000000;" parent="1" vertex="1">
                    <mxGeometry x="143.2699999999998" y="603" width="101.7" height="20" as="geometry"/>
                </mxCell>
                <mxCell id="66" value="" style="endArrow=none;html=1;dashed=1;exitX=1;exitY=0.5;exitDx=0;exitDy=0;endFill=0;fontColor=#000000;" parent="1" source="67" edge="1">
                    <mxGeometry width="50" height="50" relative="1" as="geometry">
                        <mxPoint x="232.83999999999997" y="671" as="sourcePoint"/>
                        <mxPoint x="374.75" y="613" as="targetPoint"/>
                        <Array as="points">
                            <mxPoint x="374.75" y="663"/>
                        </Array>
                    </mxGeometry>
                </mxCell>
                <mxCell id="67" value="&lt;font style=&quot;font-size: 14px&quot;&gt;Señal de Parada de Emergencia&lt;br&gt;&lt;/font&gt;" style="text;html=1;strokeColor=none;fillColor=none;align=center;verticalAlign=middle;whiteSpace=wrap;rounded=0;glass=0;fontColor=#000000;" parent="1" vertex="1">
                    <mxGeometry x="59.85999999999994" y="652.8200000000002" width="211.7" height="20" as="geometry"/>
                </mxCell>
                <mxCell id="188" style="edgeStyle=orthogonalEdgeStyle;rounded=0;orthogonalLoop=1;jettySize=auto;html=1;exitX=1;exitY=0.5;exitDx=0;exitDy=0;entryX=0;entryY=0.5;entryDx=0;entryDy=0;dashed=1;fontColor=#000000;" parent="1" source="68" target="150" edge="1">
                    <mxGeometry relative="1" as="geometry">
                        <Array as="points">
                            <mxPoint x="448" y="900"/>
                            <mxPoint x="448" y="991"/>
                        </Array>
                    </mxGeometry>
                </mxCell>
                <mxCell id="190" style="edgeStyle=orthogonalEdgeStyle;rounded=0;orthogonalLoop=1;jettySize=auto;html=1;exitX=1;exitY=0.5;exitDx=0;exitDy=0;entryX=0;entryY=0.5;entryDx=0;entryDy=0;dashed=1;fontColor=#000000;" parent="1" source="68" target="xQzbbyP8b-qCSZpWFhyt-105" edge="1">
                    <mxGeometry relative="1" as="geometry">
                        <Array as="points">
                            <mxPoint x="409" y="900"/>
                            <mxPoint x="409" y="1070"/>
                        </Array>
                    </mxGeometry>
                </mxCell>
                <mxCell id="68" value="&lt;font style=&quot;font-size: 14px&quot;&gt;Entorno del cultivo&lt;/font&gt;" style="text;html=1;strokeColor=none;fillColor=none;align=center;verticalAlign=middle;whiteSpace=wrap;rounded=0;glass=0;fontColor=#000000;" parent="1" vertex="1">
                    <mxGeometry x="168" y="890.26" width="122.29" height="20" as="geometry"/>
                </mxCell>
                <mxCell id="72" style="edgeStyle=orthogonalEdgeStyle;rounded=0;orthogonalLoop=1;jettySize=auto;html=1;dashed=1;fontColor=#000000;" parent="1" source="71" edge="1">
                    <mxGeometry relative="1" as="geometry">
                        <Array as="points">
                            <mxPoint x="1168" y="1250"/>
                            <mxPoint x="969" y="1250"/>
                            <mxPoint x="969" y="1345"/>
                        </Array>
                        <mxPoint x="969" y="1345" as="targetPoint"/>
                    </mxGeometry>
                </mxCell>
                <mxCell id="86" value="" style="edgeStyle=orthogonalEdgeStyle;rounded=0;orthogonalLoop=1;jettySize=auto;html=1;dashed=1;strokeWidth=1;fontColor=#000000;" parent="1" source="71" target="GMVJKWx3nVJiayQFcU2y-33" edge="1">
                    <mxGeometry relative="1" as="geometry"/>
                </mxCell>
                <mxCell id="71" value="Accionar mecanismo de movimiento" style="rounded=0;whiteSpace=wrap;html=1;fillColor=#dae8fc;strokeColor=#6c8ebf;fontColor=#000000;" parent="1" vertex="1">
                    <mxGeometry x="1108" y="1170.26" width="120" height="60" as="geometry"/>
                </mxCell>
                <mxCell id="74" value="Detectar obstáculos" style="rounded=0;whiteSpace=wrap;html=1;fillColor=#dae8fc;strokeColor=#6c8ebf;fontColor=#000000;" parent="1" vertex="1">
                    <mxGeometry x="584.0999999999999" y="870.26" width="120" height="60" as="geometry"/>
                </mxCell>
                <mxCell id="75" value="" style="endArrow=classic;html=1;dashed=1;exitX=1;exitY=0.5;exitDx=0;exitDy=0;endFill=1;entryX=0;entryY=0.5;entryDx=0;entryDy=0;rounded=0;fontColor=#000000;" parent="1" source="xQzbbyP8b-qCSZpWFhyt-104" target="9" edge="1">
                    <mxGeometry width="50" height="50" relative="1" as="geometry">
                        <mxPoint x="714.1" y="1000.26" as="sourcePoint"/>
                        <mxPoint x="976.1200000000001" y="900.26" as="targetPoint"/>
                        <Array as="points">
                            <mxPoint x="976" y="1150"/>
                            <mxPoint x="976" y="958"/>
                        </Array>
                    </mxGeometry>
                </mxCell>
                <mxCell id="76" value="" style="endArrow=classic;html=1;dashed=1;entryX=0;entryY=0.5;entryDx=0;entryDy=0;exitX=1;exitY=0.5;exitDx=0;exitDy=0;fontColor=#000000;" parent="1" source="68" target="74" edge="1">
                    <mxGeometry width="50" height="50" relative="1" as="geometry">
                        <mxPoint x="466.12" y="900.26" as="sourcePoint"/>
                        <mxPoint x="571.61" y="899.84" as="targetPoint"/>
                    </mxGeometry>
                </mxCell>
                <mxCell id="81" style="edgeStyle=orthogonalEdgeStyle;rounded=0;orthogonalLoop=1;jettySize=auto;html=1;entryX=0.5;entryY=0;entryDx=0;entryDy=0;dashed=1;exitX=1;exitY=0.5;exitDx=0;exitDy=0;fontColor=#000000;" parent="1" source="12" target="GMVJKWx3nVJiayQFcU2y-32" edge="1">
                    <mxGeometry relative="1" as="geometry">
                        <mxPoint x="1562.2400000000002" y="899.67" as="sourcePoint"/>
                        <mxPoint x="1693.33" y="899.67" as="targetPoint"/>
                        <Array as="points">
                            <mxPoint x="1610" y="980"/>
                            <mxPoint x="1610" y="1158"/>
                            <mxPoint x="1652" y="1158"/>
                        </Array>
                    </mxGeometry>
                </mxCell>
                <mxCell id="85" value="" style="endArrow=classic;html=1;dashed=1;strokeWidth=1;exitX=1;exitY=0.5;exitDx=0;exitDy=0;entryX=0;entryY=0.5;entryDx=0;entryDy=0;rounded=0;fontColor=#000000;" parent="1" source="49" target="71" edge="1">
                    <mxGeometry width="50" height="50" relative="1" as="geometry">
                        <mxPoint x="226.12" y="850.26" as="sourcePoint"/>
                        <mxPoint x="436.12" y="1060.26" as="targetPoint"/>
                        <Array as="points">
                            <mxPoint x="876" y="817"/>
                            <mxPoint x="876" y="1200"/>
                        </Array>
                    </mxGeometry>
                </mxCell>
                <mxCell id="95" value="" style="rounded=0;whiteSpace=wrap;html=1;strokeWidth=1;glass=0;fontColor=#000000;" parent="1" vertex="1">
                    <mxGeometry x="1730" y="633.26" width="220" height="477" as="geometry"/>
                </mxCell>
                <mxCell id="96" value="&lt;font style=&quot;font-size: 14px&quot;&gt;Interfaz&lt;/font&gt;" style="text;html=1;strokeColor=none;fillColor=none;align=center;verticalAlign=middle;whiteSpace=wrap;rounded=0;fontColor=#000000;" parent="1" vertex="1">
                    <mxGeometry x="1730.13" y="633.26" width="62.45" height="20" as="geometry"/>
                </mxCell>
                <mxCell id="97" value="Mostrar Alerta de Fallo de Sistema" style="rounded=0;whiteSpace=wrap;html=1;fontColor=#000000;" parent="1" vertex="1">
                    <mxGeometry x="1772.9846511627916" y="661.89" width="145.11627906976744" height="60" as="geometry"/>
                </mxCell>
                <mxCell id="100" value="Mostrar Estado de Nivel de Batería" style="rounded=0;whiteSpace=wrap;html=1;fontColor=#000000;" parent="1" vertex="1">
                    <mxGeometry x="1772.9832558139542" y="927.7099999999998" width="145.11627906976744" height="60" as="geometry"/>
                </mxCell>
                <mxCell id="103" value="" style="endArrow=classic;html=1;dashed=1;entryX=0;entryY=0.5;entryDx=0;entryDy=0;rounded=0;fontColor=#000000;" parent="1" target="95" edge="1">
                    <mxGeometry width="50" height="50" relative="1" as="geometry">
                        <mxPoint x="570" y="700" as="sourcePoint"/>
                        <mxPoint x="2118.7199999999993" y="641.15" as="targetPoint"/>
                        <Array as="points">
                            <mxPoint x="570" y="640"/>
                            <mxPoint x="1690" y="640"/>
                            <mxPoint x="1690" y="872"/>
                        </Array>
                    </mxGeometry>
                </mxCell>
                <mxCell id="119" value="Mostrar Posición del Vehículo en el Plano" style="rounded=0;whiteSpace=wrap;html=1;fontColor=#000000;" parent="1" vertex="1">
                    <mxGeometry x="1772.9846511627916" y="744.1199999999999" width="145.11627906976744" height="60" as="geometry"/>
                </mxCell>
                <mxCell id="120" value="Mostrar Indicador de Obstáculo" style="rounded=0;whiteSpace=wrap;html=1;fontColor=#000000;" parent="1" vertex="1">
                    <mxGeometry x="1772.9846511627916" y="834.1199999999999" width="145.11627906976744" height="60" as="geometry"/>
                </mxCell>
                <mxCell id="122" value="" style="endArrow=classic;html=1;dashed=1;entryX=0;entryY=0.5;entryDx=0;entryDy=0;exitX=1;exitY=0.5;exitDx=0;exitDy=0;fontColor=#000000;" parent="1" source="97" target="135" edge="1">
                    <mxGeometry x="2010" y="574.8900000000001" width="50" height="50" as="geometry">
                        <mxPoint x="2010" y="698.8900000000001" as="sourcePoint"/>
                        <mxPoint x="2137.619999999999" y="698.6100000000001" as="targetPoint"/>
                    </mxGeometry>
                </mxCell>
                <mxCell id="123" value="" style="endArrow=classic;html=1;entryX=0;entryY=0.5;entryDx=0;entryDy=0;exitX=0.5;exitY=1;exitDx=0;exitDy=0;fontColor=#000000;" parent="1" source="22" target="129" edge="1">
                    <mxGeometry x="1825.12" y="1522.22" width="50" height="50" as="geometry">
                        <mxPoint x="1400" y="1550" as="sourcePoint"/>
                        <mxPoint x="1953.42" y="1580" as="targetPoint"/>
                        <Array as="points">
                            <mxPoint x="1091" y="1512"/>
                        </Array>
                    </mxGeometry>
                </mxCell>
                <mxCell id="124" value="" style="endArrow=classic;html=1;dashed=1;entryX=0;entryY=0.5;entryDx=0;entryDy=0;exitX=1;exitY=0.5;exitDx=0;exitDy=0;fontColor=#000000;" parent="1" source="119" edge="1">
                    <mxGeometry x="2050" y="829.44" width="50" height="50" as="geometry">
                        <mxPoint x="2050" y="1030.44" as="sourcePoint"/>
                        <mxPoint x="2000" y="774.1200000000001" as="targetPoint"/>
                    </mxGeometry>
                </mxCell>
                <mxCell id="125" value="" style="endArrow=classic;html=1;dashed=1;entryX=0;entryY=0.5;entryDx=0;entryDy=0;exitX=1;exitY=0.5;exitDx=0;exitDy=0;fontColor=#000000;" parent="1" source="100" target="132" edge="1">
                    <mxGeometry x="2050" y="853.44" width="50" height="50" as="geometry">
                        <mxPoint x="2050" y="1130.44" as="sourcePoint"/>
                        <mxPoint x="2176.6000000000004" y="1130.46" as="targetPoint"/>
                    </mxGeometry>
                </mxCell>
                <mxCell id="126" value="" style="endArrow=classic;html=1;entryX=0;entryY=0.5;entryDx=0;entryDy=0;strokeWidth=4;exitX=0.5;exitY=1;exitDx=0;exitDy=0;fontColor=#000000;" parent="1" source="50" target="134" edge="1">
                    <mxGeometry x="1850" y="1186.46" width="50" height="50" as="geometry">
                        <mxPoint x="1850" y="1529.46" as="sourcePoint"/>
                        <mxPoint x="1976.6000000000004" y="1529" as="targetPoint"/>
                        <Array as="points">
                            <mxPoint x="1568" y="1472"/>
                        </Array>
                    </mxGeometry>
                </mxCell>
                <mxCell id="127" value="" style="endArrow=classic;html=1;dashed=1;entryX=0;entryY=0.5;entryDx=0;entryDy=0;exitX=1;exitY=0.5;exitDx=0;exitDy=0;fontColor=#000000;" parent="1" source="120" target="131" edge="1">
                    <mxGeometry x="2050" y="803.4399999999999" width="50" height="50" as="geometry">
                        <mxPoint x="2050" y="1080.44" as="sourcePoint"/>
                        <mxPoint x="2176.6000000000004" y="1080.46" as="targetPoint"/>
                    </mxGeometry>
                </mxCell>
                <mxCell id="128" value="" style="endArrow=classic;html=1;dashed=1;entryX=0;entryY=0.5;entryDx=0;entryDy=0;exitX=1;exitY=0.5;exitDx=0;exitDy=0;fontColor=#000000;" parent="1" source="136" target="133" edge="1">
                    <mxGeometry x="2050" y="837.8999999999999" width="50" height="50" as="geometry">
                        <mxPoint x="2050" y="1180.9" as="sourcePoint"/>
                        <mxPoint x="2176.6000000000004" y="1180.44" as="targetPoint"/>
                    </mxGeometry>
                </mxCell>
                <mxCell id="129" value="&lt;font style=&quot;font-size: 14px&quot;&gt;Calor, ruido y vibraciones&lt;/font&gt;" style="text;html=1;strokeColor=none;fillColor=none;align=center;verticalAlign=middle;whiteSpace=wrap;rounded=0;glass=0;fontColor=#000000;" parent="1" vertex="1">
                    <mxGeometry x="1797" y="1502" width="160" height="20" as="geometry"/>
                </mxCell>
                <mxCell id="130" value="&lt;font style=&quot;font-size: 14px&quot;&gt;Posición del Vehículo en el plano&lt;/font&gt;" style="text;html=1;strokeColor=none;fillColor=none;align=center;verticalAlign=middle;whiteSpace=wrap;rounded=0;glass=0;fontColor=#000000;" parent="1" vertex="1">
                    <mxGeometry x="2000" y="764.12" width="210" height="20" as="geometry"/>
                </mxCell>
                <mxCell id="131" value="&lt;font style=&quot;font-size: 14px&quot;&gt;Indicador de Obstáculo&lt;/font&gt;" style="text;html=1;strokeColor=none;fillColor=none;align=center;verticalAlign=middle;whiteSpace=wrap;rounded=0;glass=0;fontColor=#000000;" parent="1" vertex="1">
                    <mxGeometry x="2000" y="854.1199999999999" width="150" height="20" as="geometry"/>
                </mxCell>
                <mxCell id="132" value="&lt;font style=&quot;font-size: 14px&quot;&gt;Estado de Nivel de Batería&lt;/font&gt;" style="text;html=1;strokeColor=none;fillColor=none;align=center;verticalAlign=middle;whiteSpace=wrap;rounded=0;glass=0;fontColor=#000000;" parent="1" vertex="1">
                    <mxGeometry x="2000" y="947.71" width="180" height="20" as="geometry"/>
                </mxCell>
                <mxCell id="133" value="&lt;font style=&quot;font-size: 14px&quot;&gt;Nivel de Pesticida&lt;/font&gt;" style="text;html=1;strokeColor=none;fillColor=none;align=center;verticalAlign=middle;whiteSpace=wrap;rounded=0;glass=0;fontColor=#000000;" parent="1" vertex="1">
                    <mxGeometry x="2000" y="1041.3799999999999" width="120" height="20" as="geometry"/>
                </mxCell>
                <mxCell id="134" value="&lt;font style=&quot;font-size: 14px&quot;&gt;Flujo de Pesticida&lt;/font&gt;" style="text;html=1;strokeColor=none;fillColor=none;align=center;verticalAlign=middle;whiteSpace=wrap;rounded=0;glass=0;fontColor=#000000;" parent="1" vertex="1">
                    <mxGeometry x="1797" y="1462" width="120" height="20" as="geometry"/>
                </mxCell>
                <mxCell id="135" value="&lt;font style=&quot;font-size: 14px&quot;&gt;Alerta de Fallo de Sistema&lt;/font&gt;" style="text;html=1;strokeColor=none;fillColor=none;align=center;verticalAlign=middle;whiteSpace=wrap;rounded=0;glass=0;fontColor=#000000;" parent="1" vertex="1">
                    <mxGeometry x="2000" y="681.8900000000001" width="170" height="20" as="geometry"/>
                </mxCell>
                <mxCell id="136" value="Mostrar Nivel de Pesticida" style="rounded=0;whiteSpace=wrap;html=1;fontColor=#000000;" parent="1" vertex="1">
                    <mxGeometry x="1772.9832558139542" y="1021.3799999999999" width="145.11627906976744" height="60" as="geometry"/>
                </mxCell>
                <mxCell id="142" value="&lt;font style=&quot;font-size: 14px&quot;&gt;Subsistema de energía&lt;/font&gt;" style="text;html=1;strokeColor=none;fillColor=none;align=center;verticalAlign=middle;whiteSpace=wrap;rounded=0;glass=0;fontColor=#000000;" parent="1" vertex="1">
                    <mxGeometry x="2043" y="1258.64" width="160" height="20" as="geometry"/>
                </mxCell>
                <mxCell id="143" value="" style="rounded=0;whiteSpace=wrap;html=1;strokeColor=#9673a6;fillColor=#e1d5e7;fontColor=#000000;" parent="1" vertex="1">
                    <mxGeometry x="2007" y="1256.64" width="30" height="22.11" as="geometry"/>
                </mxCell>
                <mxCell id="145" value="&lt;font style=&quot;font-size: 14px&quot;&gt;Subsistema de vehículo&lt;/font&gt;" style="text;html=1;strokeColor=none;fillColor=none;align=center;verticalAlign=middle;whiteSpace=wrap;rounded=0;glass=0;fontColor=#000000;" parent="1" vertex="1">
                    <mxGeometry x="2043" y="1298.64" width="160" height="20" as="geometry"/>
                </mxCell>
                <mxCell id="147" value="" style="rounded=0;whiteSpace=wrap;html=1;strokeColor=#6c8ebf;fillColor=#dae8fc;fontColor=#000000;" parent="1" vertex="1">
                    <mxGeometry x="2007" y="1296.64" width="30" height="22.11" as="geometry"/>
                </mxCell>
                <mxCell id="151" style="edgeStyle=orthogonalEdgeStyle;rounded=0;orthogonalLoop=1;jettySize=auto;html=1;entryX=0;entryY=0.25;entryDx=0;entryDy=0;endArrow=classic;endFill=1;dashed=1;fontColor=#000000;" parent="1" source="150" target="3" edge="1">
                    <mxGeometry relative="1" as="geometry">
                        <Array as="points">
                            <mxPoint x="934" y="991"/>
                            <mxPoint x="934" y="819"/>
                        </Array>
                    </mxGeometry>
                </mxCell>
                <mxCell id="150" value="Sensar velocidad del vehículo" style="rounded=0;whiteSpace=wrap;html=1;fillColor=#dae8fc;strokeColor=#6c8ebf;fontColor=#000000;" parent="1" vertex="1">
                    <mxGeometry x="584.0999999999999" y="961.3799999999999" width="120" height="60" as="geometry"/>
                </mxCell>
                <mxCell id="152" value="&lt;font style=&quot;font-size: 14px&quot;&gt;Subsistema de eliminación de maleza&lt;/font&gt;" style="text;html=1;strokeColor=none;fillColor=none;align=center;verticalAlign=middle;whiteSpace=wrap;rounded=0;glass=0;fontColor=#000000;" parent="1" vertex="1">
                    <mxGeometry x="2043" y="1337" width="160" height="20" as="geometry"/>
                </mxCell>
                <mxCell id="153" value="" style="rounded=0;whiteSpace=wrap;html=1;strokeColor=#36393d;fillColor=#ffff88;fontColor=#000000;" parent="1" vertex="1">
                    <mxGeometry x="2007" y="1335" width="30" height="22.11" as="geometry"/>
                </mxCell>
                <mxCell id="154" value="&lt;font style=&quot;font-size: 14px&quot;&gt;Subsistema de interfaz y comunicación&lt;/font&gt;" style="text;html=1;strokeColor=none;fillColor=none;align=center;verticalAlign=middle;whiteSpace=wrap;rounded=0;glass=0;fontColor=#000000;" parent="1" vertex="1">
                    <mxGeometry x="2043" y="1217.8" width="160" height="20" as="geometry"/>
                </mxCell>
                <mxCell id="155" value="" style="rounded=0;whiteSpace=wrap;html=1;fontColor=#000000;" parent="1" vertex="1">
                    <mxGeometry x="2007" y="1216" width="30" height="22.11" as="geometry"/>
                </mxCell>
                <mxCell id="167" style="edgeStyle=orthogonalEdgeStyle;rounded=0;orthogonalLoop=1;jettySize=auto;html=1;entryX=0.25;entryY=0;entryDx=0;entryDy=0;dashed=1;fontColor=#000000;" parent="1" source="166" target="50" edge="1">
                    <mxGeometry relative="1" as="geometry">
                        <mxPoint x="1399.0544186046513" y="1346.82" as="targetPoint"/>
                        <Array as="points">
                            <mxPoint x="1482" y="1303"/>
                            <mxPoint x="1531" y="1303"/>
                        </Array>
                    </mxGeometry>
                </mxCell>
                <mxCell id="166" value="Accionar mecanismo de rotación de rociadores" style="rounded=0;whiteSpace=wrap;html=1;fillColor=#ffff88;strokeColor=#36393d;fontColor=#000000;" parent="1" vertex="1">
                    <mxGeometry x="1422" y="1167" width="120" height="60" as="geometry"/>
                </mxCell>
                <mxCell id="171" value="Soportar componentes (estructura)" style="rounded=0;whiteSpace=wrap;html=1;fillColor=#dae8fc;strokeColor=#6c8ebf;fontColor=#000000;" parent="1" vertex="1">
                    <mxGeometry x="575.0032558139533" y="1345.26" width="145.11627906976744" height="60" as="geometry"/>
                </mxCell>
                <mxCell id="172" value="Proteger componentes electrónicos" style="rounded=0;whiteSpace=wrap;html=1;fillColor=#dae8fc;strokeColor=#6c8ebf;fontColor=#000000;" parent="1" vertex="1">
                    <mxGeometry x="744.0032558139533" y="1345.26" width="145.11627906976744" height="60" as="geometry"/>
                </mxCell>
                <mxCell id="183" style="edgeStyle=orthogonalEdgeStyle;rounded=0;orthogonalLoop=1;jettySize=auto;html=1;entryX=0;entryY=0.25;entryDx=0;entryDy=0;fontColor=#000000;" parent="1" source="179" target="TbavfHPHpZ2KASNAtm9h-15" edge="1">
                    <mxGeometry relative="1" as="geometry"/>
                </mxCell>
                <mxCell id="179" value="Encendido del sistema" style="rounded=0;whiteSpace=wrap;html=1;fillColor=#e1d5e7;strokeColor=#9673a6;fontColor=#000000;" parent="1" vertex="1">
                    <mxGeometry x="399.0000000000001" y="398" width="120" height="60" as="geometry"/>
                </mxCell>
                <mxCell id="186" style="edgeStyle=orthogonalEdgeStyle;rounded=0;orthogonalLoop=1;jettySize=auto;html=1;exitX=1;exitY=0.5;exitDx=0;exitDy=0;fontColor=#000000;" parent="1" source="184" target="16" edge="1">
                    <mxGeometry relative="1" as="geometry"/>
                </mxCell>
                <mxCell id="184" value="Desplazamiento del vehículo" style="rounded=0;whiteSpace=wrap;html=1;fillColor=#dae8fc;strokeColor=#6c8ebf;fontColor=#000000;" parent="1" vertex="1">
                    <mxGeometry x="1198" y="1345.26" width="127" height="60" as="geometry"/>
                </mxCell>
                <mxCell id="191" value="Cálculo de trayectoria" style="rounded=0;whiteSpace=wrap;html=1;fillColor=#dae8fc;strokeColor=#6c8ebf;fontColor=#000000;" parent="1" vertex="1">
                    <mxGeometry x="1104.9999999999998" y="840.26" width="120" height="60" as="geometry"/>
                </mxCell>
                <mxCell id="201" style="edgeStyle=orthogonalEdgeStyle;rounded=0;orthogonalLoop=1;jettySize=auto;html=1;exitX=1;exitY=0.75;exitDx=0;exitDy=0;dashed=1;fontColor=#000000;" parent="1" source="195" edge="1">
                    <mxGeometry relative="1" as="geometry">
                        <mxPoint x="575" y="1375" as="targetPoint"/>
                    </mxGeometry>
                </mxCell>
                <mxCell id="195" value="&lt;font style=&quot;font-size: 14px&quot;&gt;Componentes del vehículo&lt;/font&gt;" style="text;html=1;strokeColor=none;fillColor=none;align=center;verticalAlign=middle;whiteSpace=wrap;rounded=0;glass=0;fontColor=#000000;" parent="1" vertex="1">
                    <mxGeometry x="439.97" y="1361" width="99" height="20" as="geometry"/>
                </mxCell>
                <mxCell id="204" style="edgeStyle=orthogonalEdgeStyle;rounded=0;orthogonalLoop=1;jettySize=auto;html=1;exitX=1;exitY=0.5;exitDx=0;exitDy=0;fontColor=#000000;" parent="1" source="202" target="184" edge="1">
                    <mxGeometry relative="1" as="geometry"/>
                </mxCell>
                <mxCell id="202" value="Dirigir vehículo" style="rounded=0;whiteSpace=wrap;html=1;fillColor=#dae8fc;strokeColor=#6c8ebf;fontColor=#000000;" parent="1" vertex="1">
                    <mxGeometry x="1056" y="1345.26" width="104" height="60" as="geometry"/>
                </mxCell>
                <mxCell id="205" value="" style="endArrow=classic;html=1;dashed=1;strokeWidth=1;exitX=1;exitY=0.5;exitDx=0;exitDy=0;entryX=0;entryY=0.5;entryDx=0;entryDy=0;rounded=0;fontColor=#000000;" parent="1" source="49" target="71" edge="1">
                    <mxGeometry width="50" height="50" relative="1" as="geometry">
                        <mxPoint x="295.5999999999999" y="820" as="sourcePoint"/>
                        <mxPoint x="1108" y="1200.2600000000002" as="targetPoint"/>
                        <Array as="points">
                            <mxPoint x="876" y="817"/>
                            <mxPoint x="876" y="1200"/>
                            <mxPoint x="951" y="1200"/>
                        </Array>
                    </mxGeometry>
                </mxCell>
                <mxCell id="208" style="edgeStyle=orthogonalEdgeStyle;rounded=0;orthogonalLoop=1;jettySize=auto;html=1;exitX=1;exitY=0.5;exitDx=0;exitDy=0;entryX=0.25;entryY=1;entryDx=0;entryDy=0;fontColor=#000000;" parent="1" source="206" target="50" edge="1">
                    <mxGeometry relative="1" as="geometry"/>
                </mxCell>
                <mxCell id="206" value="Transportar pesticida" style="rounded=0;whiteSpace=wrap;html=1;fillColor=#ffff88;strokeColor=#36393d;fontColor=#000000;" parent="1" vertex="1">
                    <mxGeometry x="767.8832558139533" y="1414" width="145.11627906976744" height="60" as="geometry"/>
                </mxCell>
            </root>
        </mxGraphModel>
    </diagram>
</mxfile>